nColumns=28
nRows=53
DataType=double
version=3
OpenSimVersion=4.1
endheader
time	ground_force_1_vx	ground_force_1_vy	ground_force_1_vz	ground_force_1_px	ground_force_1_py	ground_force_1_pz	ground_force_1_mx	ground_force_1_my	ground_force_1_mz	ground_force_2_vx	ground_force_2_vy	ground_force_2_vz	ground_force_2_px	ground_force_2_py	ground_force_2_pz	ground_force_2_mx	ground_force_2_my	ground_force_2_mz	ground_force_3_vx	ground_force_3_vy	ground_force_3_vz	ground_force_3_px	ground_force_3_py	ground_force_3_pz	ground_force_3_mx	ground_force_3_my	ground_force_3_mz
9.6	0.14554	431.604	-24.9726	-0.265276	0.006	-0.409253	0	-2.94424	0	1.70405	91.6722	20.0158	-0.214876	0.006	-0.782921	0	0.347348	0	0	0	0	0	0	0	0	0	0
9.61	0.866152	430.861	-25.1111	-0.266865	0.006	-0.40965	0	-2.86174	0	1.95759	91.324	20.0267	-0.215636	0.006	-0.78287	0	0.312482	0	0	0	0	0	0	0	0	0	0
9.62	1.5262	430.719	-25.3067	-0.268435	0.006	-0.410053	0	-2.77576	0	2.20122	91.3599	20.1152	-0.216464	0.006	-0.782815	0	0.276422	0	0	0	0	0	0	0	0	0	0
9.63	2.10679	431.26	-25.5596	-0.26997	0.006	-0.41046	0	-2.68731	0	2.41578	91.7812	20.2799	-0.217329	0.006	-0.782765	0	0.239995	0	0	0	0	0	0	0	0	0	0
9.64	2.59529	432.552	-25.8666	-0.27146	0.006	-0.410871	0	-2.59737	0	2.58113	92.5794	20.5201	-0.218198	0.006	-0.782728	0	0.203967	0	0	0	0	0	0	0	0	0	0
9.65	2.98435	434.646	-26.2205	-0.272892	0.006	-0.411282	0	-2.50681	0	2.67921	93.7376	20.8338	-0.219042	0.006	-0.782715	0	0.169237	0	0	0	0	0	0	0	0	0	0
9.66	3.27089	437.566	-26.61	-0.274261	0.006	-0.411694	0	-2.41634	0	2.69627	95.2298	21.2162	-0.219839	0.006	-0.782738	0	0.136906	0	0	0	0	0	0	0	0	0	0
9.67	3.45728	441.289	-27.0209	-0.275564	0.006	-0.412106	0	-2.3264	0	2.62415	97.0205	21.6591	-0.220571	0.006	-0.782807	0	0.108095	0	0	0	0	0	0	0	0	0	0
9.68	3.55367	445.725	-27.4365	-0.276799	0.006	-0.412517	0	-2.23714	0	2.46125	99.0663	22.1508	-0.221229	0.006	-0.782926	0	0.083922	0	0	0	0	0	0	0	0	0	0
9.69	3.57949	450.715	-27.8379	-0.277971	0.006	-0.412927	0	-2.14856	0	2.21281	101.319	22.6775	-0.221809	0.006	-0.783098	0	0.065487	0	0	0	0	0	0	0	0	0	0
9.7	3.56331	456.037	-28.2054	-0.279083	0.006	-0.413334	0	-2.06061	0	1.8906	103.732	23.224	-0.222315	0.006	-0.783319	0	0.053836	0	0	0	0	0	0	0	0	0	0
9.71	3.53924	461.434	-28.5211	-0.280144	0.006	-0.413737	0	-1.97347	0	1.5122	106.266	23.776	-0.222759	0.006	-0.783585	0	0.049982	0	0	0	0	0	0	0	0	0	0
9.72	3.53953	466.635	-28.7722	-0.281161	0.006	-0.414131	0	-1.88755	0	1.09905	108.899	24.323	-0.223161	0.006	-0.78389	0	0.054775	0	0	0	0	0	0	0	0	0	0
9.73	3.59025	471.38	-28.9507	-0.282139	0.006	-0.414514	0	-1.80358	0	0.674649	111.628	24.8619	-0.223546	0.006	-0.78423	0	0.068722	0	0	0	0	0	0	0	0	0	0
9.74	3.71127	475.426	-29.0534	-0.283084	0.006	-0.41488	0	-1.72257	0	0.262872	114.472	25.3976	-0.223943	0.006	-0.784601	0	0.091956	0	0	0	0	0	0	0	0	0	0
9.75	3.91787	478.569	-29.0802	-0.284001	0.006	-0.415229	0	-1.64577	0	-0.113325	117.461	25.9422	-0.224379	0.006	-0.785003	0	0.124169	0	0	0	0	0	0	0	0	0	0
9.76	4.22202	480.663	-29.0321	-0.284893	0.006	-0.415558	0	-1.57449	0	-0.43356	120.636	26.513	-0.224876	0.006	-0.785433	0	0.164626	0	0	0	0	0	0	0	0	0	0
9.77	4.63268	481.634	-28.9115	-0.285761	0.006	-0.415866	0	-1.50992	0	-0.681752	124.036	27.1299	-0.225451	0.006	-0.785892	0	0.212199	0	0	0	0	0	0	0	0	0	0
9.78	5.15532	481.488	-28.7223	-0.286605	0.006	-0.416154	0	-1.453	0	-0.847155	127.697	27.8116	-0.226109	0.006	-0.786379	0	0.265413	0	0	0	0	0	0	0	0	0	0
9.79	5.79156	480.308	-28.4724	-0.287421	0.006	-0.416421	0	-1.40431	0	-0.925787	131.636	28.573	-0.226848	0.006	-0.78689	0	0.322699	0	0	0	0	0	0	0	0	0	0
9.8	6.53918	478.253	-28.175	-0.288206	0.006	-0.416669	0	-1.364	0	-0.920634	135.852	29.4225	-0.227657	0.006	-0.787422	0	0.382397	0	0	0	0	0	0	0	0	0	0
9.81	7.39198	475.543	-27.8498	-0.288949	0.006	-0.416895	0	-1.33171	0	-0.840129	140.314	30.3602	-0.228515	0.006	-0.787968	0	0.44277	0	0	0	0	0	0	0	0	0	0
9.82	8.33746	472.446	-27.5237	-0.289639	0.006	-0.417097	0	-1.30667	0	-0.696377	144.958	31.3761	-0.229396	0.006	-0.788519	0	0.502167	0	0	0	0	0	0	0	0	0	0
9.83	9.3523	469.259	-27.2273	-0.290259	0.006	-0.417273	0	-1.28784	0	-0.504448	149.686	32.4486	-0.230272	0.006	-0.789065	0	0.559199	0	0	0	0	0	0	0	0	0	0
9.84	10.3966	466.28	-26.9889	-0.29079	0.006	-0.417419	0	-1.27406	0	-0.280765	154.375	33.5451	-0.231112	0.006	-0.789596	0	0.612635	0	0	0	0	0	0	0	0	0	0
9.85	11.4123	463.781	-26.8281	-0.291211	0.006	-0.417533	0	-1.26397	0	-0.0414401	158.884	34.6221	-0.231889	0.006	-0.790099	0	0.661428	0	0	0	0	0	0	0	0	0	0
9.86	12.3271	461.984	-26.7508	-0.291499	0.006	-0.417612	0	-1.25611	0	0.198258	163.068	35.6297	-0.23258	0.006	-0.790561	0	0.704897	0	0	0	0	0	0	0	0	0	0
9.87	13.0643	461.037	-26.7478	-0.291637	0.006	-0.417658	0	-1.249	0	0.42321	166.795	36.5159	-0.23317	0.006	-0.79097	0	0.742848	0	0	0	0	0	0	0	0	0	0
9.88	13.5543	461.011	-26.7965	-0.291616	0.006	-0.417674	0	-1.24119	0	0.618155	169.955	37.2308	-0.233649	0.006	-0.791317	0	0.77549	0	0	0	0	0	0	0	0	0	0
9.89	13.7443	461.897	-26.8661	-0.291435	0.006	-0.417668	0	-1.23134	0	0.768786	172.467	37.731	-0.234014	0.006	-0.791592	0	0.803356	0	0	0	0	0	0	0	0	0	0
9.9	13.6063	463.626	-26.9252	-0.291101	0.006	-0.417645	0	-1.21854	0	0.862976	174.279	37.9836	-0.234262	0.006	-0.791791	0	0.827177	0	0	0	0	0	0	0	0	0	0
9.91	13.1451	466.082	-26.9499	-0.290633	0.006	-0.417611	0	-1.20248	0	0.892257	175.37	37.9696	-0.234393	0.006	-0.791913	0	0.847745	0	0	0	0	0	0	0	0	0	0
9.92	12.4007	469.123	-26.9297	-0.290061	0.006	-0.417571	0	-1.18348	0	0.853266	175.745	37.6864	-0.234408	0.006	-0.791958	0	0.866054	0	0	0	0	0	0	0	0	0	0
9.93	11.444	472.598	-26.8686	-0.289419	0.006	-0.417529	0	-1.16241	0	0.748202	175.436	37.1484	-0.234311	0.006	-0.791931	0	0.883218	0	0	0	0	0	0	0	0	0	0
9.94	10.3675	476.353	-26.7825	-0.288747	0.006	-0.417484	0	-1.14045	0	0.584406	174.493	36.3851	-0.234106	0.006	-0.79184	0	0.900318	0	0	0	0	0	0	0	0	0	0
9.95	9.27154	480.243	-26.6929	-0.288085	0.006	-0.41744	0	-1.11894	0	0.372703	172.983	35.4378	-0.233799	0.006	-0.791694	0	0.918157	0	0	0	0	0	0	0	0	0	0
9.96	8.2493	484.125	-26.6222	-0.28747	0.006	-0.417395	0	-1.09899	0	0.125508	170.993	34.3564	-0.233398	0.006	-0.791508	0	0.937245	0	0	0	0	0	0	0	0	0	0
9.97	7.37564	487.863	-26.5869	-0.286935	0.006	-0.417352	0	-1.08126	0	-0.144891	168.627	33.1962	-0.232916	0.006	-0.791297	0	0.957796	0	0	0	0	0	0	0	0	0	0
9.98	6.70214	491.339	-26.593	-0.286502	0.006	-0.417314	0	-1.06599	0	-0.427225	166.004	32.0144	-0.232371	0.006	-0.791075	0	0.979807	0	0	0	0	0	0	0	0	0	0
9.99	6.25805	494.469	-26.6343	-0.286187	0.006	-0.417284	0	-1.05309	0	-0.711449	163.251	30.866	-0.231783	0.006	-0.790857	0	1.0031	0	0	0	0	0	0	0	0	0	0
10	6.05331	497.203	-26.6955	-0.285998	0.006	-0.417265	0	-1.04228	0	-0.988972	160.493	29.7986	-0.231176	0.006	-0.790656	0	1.0274	0	0	0	0	0	0	0	0	0	0
10.01	6.0803	499.516	-26.7561	-0.285934	0.006	-0.417262	0	-1.03315	0	-1.25326	157.846	28.8495	-0.230577	0.006	-0.790485	0	1.05234	0	0	0	0	0	0	0	0	0	0
10.02	6.31649	501.407	-26.7954	-0.285993	0.006	-0.41728	0	-1.02511	0	-1.50012	155.403	28.0424	-0.230009	0.006	-0.790348	0	1.07753	0	0	0	0	0	0	0	0	0	0
10.03	6.72917	502.89	-26.7981	-0.286162	0.006	-0.417319	0	-1.01737	0	-1.72733	153.237	27.3867	-0.229494	0.006	-0.790248	0	1.10265	0	0	0	0	0	0	0	0	0	0
10.04	7.28066	503.988	-26.7561	-0.286429	0.006	-0.41738	0	-1.00893	0	-1.93397	151.388	26.879	-0.229046	0.006	-0.790186	0	1.12767	0	0	0	0	0	0	0	0	0	0
10.05	7.93196	504.74	-26.668	-0.286775	0.006	-0.417462	0	-0.99873	0	-2.11958	149.874	26.5052	-0.228675	0.006	-0.790158	0	1.15268	0	0	0	0	0	0	0	0	0	0
10.06	8.64498	505.195	-26.5385	-0.287182	0.006	-0.417559	0	-0.985659	0	-2.28413	148.684	26.2434	-0.228381	0.006	-0.790157	0	1.17784	0	0	0	0	0	0	0	0	0	0
10.07	9.38458	505.413	-26.3776	-0.287626	0.006	-0.417666	0	-0.96878	0	-2.42752	147.787	26.0672	-0.228159	0.006	-0.790178	0	1.20338	0	0	0	0	0	0	0	0	0	0
10.08	10.1193	505.463	-26.1985	-0.288082	0.006	-0.417775	0	-0.947512	0	-2.54892	147.138	25.9488	-0.228001	0.006	-0.790213	0	1.22938	0	0	0	0	0	0	0	0	0	0
10.09	10.8216	505.415	-26.0154	-0.288526	0.006	-0.417878	0	-0.921622	0	-2.64662	146.681	25.8624	-0.227893	0.006	-0.790255	0	1.25575	0	0	0	0	0	0	0	0	0	0
10.1	11.4689	505.335	-25.8412	-0.288933	0.006	-0.417965	0	-0.891103	0	-2.71838	146.355	25.7863	-0.227823	0.006	-0.790299	0	1.28222	0	0	0	0	0	0	0	0	0	0
10.11	12.0437	505.278	-25.6866	-0.28928	0.006	-0.418028	0	-0.856128	0	-2.76232	146.104	25.7047	-0.22778	0.006	-0.790339	0	1.30826	0	0	0	0	0	0	0	0	0	0
10.12	12.5339	505.28	-25.5591	-0.289545	0.006	-0.418061	0	-0.817051	0	-2.77732	145.878	25.608	-0.227752	0.006	-0.790376	0	1.33326	0	0	0	0	0	0	0	0	0	0
